<svg xmlns="http://www.w3.org/2000/svg" xmlns:xlink="http://www.w3.org/1999/xlink" version="1.1" viewBox="0 0 110 110" enable-background="new 0 0 110 110" xml:space="preserve">
    <g fill="#cacaca">
        <path d="M92.32,53.35C92.2,45.8,87.68,39.27,81.11,35.97l-3.04,3.04c5.93,2.43,10.14,7.97,10.25,14.41l0.05,3.18l3.12,0.66   C97,58.42,101,63.36,101,69c0,6.62-5.38,12-12,12H36.08l-4,4H89c8.84,0,16-7.16,16-16C105,61.3,99.56,54.88,92.32,53.35z"/>
        <path d="M22.18,80.74C14.7,79.41,9,72.86,9,65c0-7.33,4.97-13.7,12.09-15.49l2.48-0.63l0.47-2.51C25.93,36.3,34.75,29,45,29   c6.56,0,12.66,2.96,16.74,8.12l1.7,2.15l0.3-0.09l5.399-5.4c-1.47,0.15-2.899,0.44-4.26,0.86C60.24,28.77,53.06,25,45,25   c-12.38,0-22.68,8.89-24.89,20.63C11.43,47.81,5,55.65,5,65c0,8.91,5.82,16.46,13.88,19.04L22.18,80.74z"/>
        <polygon points="78.09,34.73 87.41,25.41 84.59,22.59 73.41,33.77 22.36,84.82 15.59,91.59 18.41,94.41 27.82,85 31.82,81    74.81,38.01  "/>
    </g>
</svg>