<?xml version="1.0" encoding="UTF-8"?>
<svg width="20px" height="18px" viewBox="0 0 20 18" version="1.1" xmlns="http://www.w3.org/2000/svg" xmlns:xlink="http://www.w3.org/1999/xlink">
    <!-- Generator: Sketch 54.1 (76490) - https://sketchapp.com -->
    <title>Telegram</title>
    <desc>Created with Sketch.</desc>
    <g id="Tablet" stroke="none" stroke-width="1" fill="none" fill-rule="evenodd">
        <g id="Tablet-Landscape" transform="translate(-963.000000, -4119.000000)" fill="#2E2E2E" fill-rule="nonzero">
            <g id="Footer" transform="translate(42.000000, 4116.000000)">
                <path d="M939,5 C933.666667,7.19047619 928.333333,9.38095238 923,11.5714286 C924.163636,12.047619 925.424242,12.5238095 926.587879,13 C927.363636,12.5238095 935.509091,7.85714286 935.70303,7.85714286 C935.8,7.85714286 935.89697,7.95238095 935.89697,8.04761905 C935.89697,8.33333333 930.369697,13.6666667 929.690909,14.3333333 L928.915152,17.4761905 L931.824242,15.0952381 L936.090909,19 C936.381818,17.5714286 938.515152,6.9047619 938.90303,5 L939,5 Z M938.500522,3.16491396 C939.998874,2.59765779 941.309932,3.54308474 940.935344,5.24485326 C940.935344,5.24485326 938.406875,18.1972025 938.125934,19.5208003 C937.93864,20.9389407 936.0657,21.5061969 934.848289,20.4662272 L931.945231,17.8190318 L929.604056,19.8044284 C928.480292,20.6553126 927.543822,19.615343 927.169234,18.5753733 C926.98194,18.0081172 926.232764,15.7390925 925.951823,14.7936655 C925.015353,14.4154947 922.861471,13.5646105 922.299589,13.2809824 C920.613943,12.6191835 920.520296,10.6337869 922.299589,9.97198804 C927.731116,7.70296334 933.162642,5.24485326 938.594169,3.07037126 L938.500522,3.16491396 Z" id="Telegram"></path>
            </g>
        </g>
    </g>
</svg>